<mxfile host="app.diagrams.net" modified="2021-08-22T08:14:16.890Z" agent="5.0 (Windows NT 10.0; Win64; x64) AppleWebKit/537.36 (KHTML, like Gecko) Chrome/92.0.4515.159 Safari/537.36" etag="ZFM9NAh9zb-ROIoY7b4j" version="14.9.6" type="github">
  <diagram id="RYNXIyLIgxgKea2BRH0b" name="Page-1">
    <mxGraphModel dx="2062" dy="1122" grid="1" gridSize="10" guides="1" tooltips="1" connect="1" arrows="1" fold="1" page="1" pageScale="1" pageWidth="1500" pageHeight="2000" math="0" shadow="0">
      <root>
        <mxCell id="0" />
        <mxCell id="1" parent="0" />
        <mxCell id="-Dkvn9TY07eHw9pP2s0H-3" style="edgeStyle=orthogonalEdgeStyle;rounded=0;orthogonalLoop=1;jettySize=auto;html=1;exitX=0.5;exitY=1;exitDx=0;exitDy=0;" edge="1" parent="1" source="-Dkvn9TY07eHw9pP2s0H-1" target="-Dkvn9TY07eHw9pP2s0H-2">
          <mxGeometry relative="1" as="geometry" />
        </mxCell>
        <mxCell id="-Dkvn9TY07eHw9pP2s0H-1" value="require(&#39;xxx&#39;)" style="rounded=1;whiteSpace=wrap;html=1;" vertex="1" parent="1">
          <mxGeometry x="620" y="190" width="120" height="60" as="geometry" />
        </mxCell>
        <mxCell id="-Dkvn9TY07eHw9pP2s0H-5" style="edgeStyle=orthogonalEdgeStyle;rounded=0;orthogonalLoop=1;jettySize=auto;html=1;exitX=1;exitY=0.5;exitDx=0;exitDy=0;" edge="1" parent="1" source="-Dkvn9TY07eHw9pP2s0H-2" target="-Dkvn9TY07eHw9pP2s0H-4">
          <mxGeometry relative="1" as="geometry" />
        </mxCell>
        <mxCell id="-Dkvn9TY07eHw9pP2s0H-10" style="edgeStyle=orthogonalEdgeStyle;rounded=0;orthogonalLoop=1;jettySize=auto;html=1;" edge="1" parent="1" source="-Dkvn9TY07eHw9pP2s0H-2" target="-Dkvn9TY07eHw9pP2s0H-9">
          <mxGeometry relative="1" as="geometry" />
        </mxCell>
        <mxCell id="-Dkvn9TY07eHw9pP2s0H-2" value="是否有缓存" style="rhombus;whiteSpace=wrap;html=1;" vertex="1" parent="1">
          <mxGeometry x="610" y="310" width="140" height="80" as="geometry" />
        </mxCell>
        <mxCell id="-Dkvn9TY07eHw9pP2s0H-4" value="返回缓存" style="rounded=1;whiteSpace=wrap;html=1;" vertex="1" parent="1">
          <mxGeometry x="810" y="320" width="120" height="60" as="geometry" />
        </mxCell>
        <mxCell id="-Dkvn9TY07eHw9pP2s0H-12" style="edgeStyle=orthogonalEdgeStyle;rounded=0;orthogonalLoop=1;jettySize=auto;html=1;exitX=1;exitY=0.5;exitDx=0;exitDy=0;entryX=0;entryY=0.5;entryDx=0;entryDy=0;" edge="1" parent="1" source="-Dkvn9TY07eHw9pP2s0H-9" target="-Dkvn9TY07eHw9pP2s0H-11">
          <mxGeometry relative="1" as="geometry" />
        </mxCell>
        <mxCell id="-Dkvn9TY07eHw9pP2s0H-19" style="edgeStyle=orthogonalEdgeStyle;rounded=0;orthogonalLoop=1;jettySize=auto;html=1;exitX=0.5;exitY=1;exitDx=0;exitDy=0;" edge="1" parent="1" source="-Dkvn9TY07eHw9pP2s0H-9" target="-Dkvn9TY07eHw9pP2s0H-18">
          <mxGeometry relative="1" as="geometry" />
        </mxCell>
        <mxCell id="-Dkvn9TY07eHw9pP2s0H-9" value="是否内置模块" style="rhombus;whiteSpace=wrap;html=1;" vertex="1" parent="1">
          <mxGeometry x="610" y="460" width="140" height="80" as="geometry" />
        </mxCell>
        <mxCell id="-Dkvn9TY07eHw9pP2s0H-11" value="返回内置模块" style="rounded=1;whiteSpace=wrap;html=1;" vertex="1" parent="1">
          <mxGeometry x="810" y="470" width="120" height="60" as="geometry" />
        </mxCell>
        <mxCell id="-Dkvn9TY07eHw9pP2s0H-16" style="edgeStyle=orthogonalEdgeStyle;rounded=0;orthogonalLoop=1;jettySize=auto;html=1;exitX=0.5;exitY=1;exitDx=0;exitDy=0;" edge="1" parent="1" source="-Dkvn9TY07eHw9pP2s0H-13" target="-Dkvn9TY07eHw9pP2s0H-15">
          <mxGeometry relative="1" as="geometry" />
        </mxCell>
        <mxCell id="-Dkvn9TY07eHw9pP2s0H-13" value="node_modules" style="rounded=1;whiteSpace=wrap;html=1;" vertex="1" parent="1">
          <mxGeometry x="620" y="760" width="120" height="60" as="geometry" />
        </mxCell>
        <mxCell id="-Dkvn9TY07eHw9pP2s0H-36" style="edgeStyle=orthogonalEdgeStyle;rounded=0;orthogonalLoop=1;jettySize=auto;html=1;exitX=0.5;exitY=1;exitDx=0;exitDy=0;" edge="1" parent="1" source="-Dkvn9TY07eHw9pP2s0H-15" target="-Dkvn9TY07eHw9pP2s0H-35">
          <mxGeometry relative="1" as="geometry" />
        </mxCell>
        <mxCell id="-Dkvn9TY07eHw9pP2s0H-38" style="edgeStyle=orthogonalEdgeStyle;rounded=0;orthogonalLoop=1;jettySize=auto;html=1;exitX=1;exitY=0.5;exitDx=0;exitDy=0;entryX=0;entryY=0.5;entryDx=0;entryDy=0;" edge="1" parent="1" source="-Dkvn9TY07eHw9pP2s0H-15" target="-Dkvn9TY07eHw9pP2s0H-28">
          <mxGeometry relative="1" as="geometry" />
        </mxCell>
        <mxCell id="-Dkvn9TY07eHw9pP2s0H-15" value="文件夹是否存在" style="rhombus;whiteSpace=wrap;html=1;" vertex="1" parent="1">
          <mxGeometry x="610" y="880" width="140" height="80" as="geometry" />
        </mxCell>
        <mxCell id="-Dkvn9TY07eHw9pP2s0H-24" style="edgeStyle=orthogonalEdgeStyle;rounded=0;orthogonalLoop=1;jettySize=auto;html=1;exitX=1;exitY=0.5;exitDx=0;exitDy=0;" edge="1" parent="1" source="-Dkvn9TY07eHw9pP2s0H-18" target="-Dkvn9TY07eHw9pP2s0H-23">
          <mxGeometry relative="1" as="geometry" />
        </mxCell>
        <mxCell id="-Dkvn9TY07eHw9pP2s0H-34" style="edgeStyle=orthogonalEdgeStyle;rounded=0;orthogonalLoop=1;jettySize=auto;html=1;exitX=0.5;exitY=1;exitDx=0;exitDy=0;entryX=0.5;entryY=0;entryDx=0;entryDy=0;" edge="1" parent="1" source="-Dkvn9TY07eHw9pP2s0H-18" target="-Dkvn9TY07eHw9pP2s0H-13">
          <mxGeometry relative="1" as="geometry" />
        </mxCell>
        <mxCell id="-Dkvn9TY07eHw9pP2s0H-18" value="是否文件路径" style="rhombus;whiteSpace=wrap;html=1;" vertex="1" parent="1">
          <mxGeometry x="610" y="600" width="140" height="80" as="geometry" />
        </mxCell>
        <mxCell id="-Dkvn9TY07eHw9pP2s0H-26" style="edgeStyle=orthogonalEdgeStyle;rounded=0;orthogonalLoop=1;jettySize=auto;html=1;exitX=1;exitY=0.5;exitDx=0;exitDy=0;entryX=0;entryY=0.5;entryDx=0;entryDy=0;" edge="1" parent="1" source="-Dkvn9TY07eHw9pP2s0H-23" target="-Dkvn9TY07eHw9pP2s0H-25">
          <mxGeometry relative="1" as="geometry" />
        </mxCell>
        <mxCell id="-Dkvn9TY07eHw9pP2s0H-29" style="edgeStyle=orthogonalEdgeStyle;rounded=0;orthogonalLoop=1;jettySize=auto;html=1;exitX=0.5;exitY=1;exitDx=0;exitDy=0;" edge="1" parent="1" source="-Dkvn9TY07eHw9pP2s0H-23" target="-Dkvn9TY07eHw9pP2s0H-28">
          <mxGeometry relative="1" as="geometry" />
        </mxCell>
        <mxCell id="-Dkvn9TY07eHw9pP2s0H-23" value="是否是文件夹" style="rhombus;whiteSpace=wrap;html=1;" vertex="1" parent="1">
          <mxGeometry x="810" y="600" width="140" height="80" as="geometry" />
        </mxCell>
        <mxCell id="-Dkvn9TY07eHw9pP2s0H-25" value="寻找.js/.json/.node文件" style="rounded=1;whiteSpace=wrap;html=1;" vertex="1" parent="1">
          <mxGeometry x="1020" y="610" width="120" height="60" as="geometry" />
        </mxCell>
        <mxCell id="-Dkvn9TY07eHw9pP2s0H-31" style="edgeStyle=orthogonalEdgeStyle;rounded=0;orthogonalLoop=1;jettySize=auto;html=1;exitX=0.5;exitY=1;exitDx=0;exitDy=0;" edge="1" parent="1" source="-Dkvn9TY07eHw9pP2s0H-28" target="-Dkvn9TY07eHw9pP2s0H-30">
          <mxGeometry relative="1" as="geometry" />
        </mxCell>
        <mxCell id="-Dkvn9TY07eHw9pP2s0H-33" style="edgeStyle=orthogonalEdgeStyle;rounded=0;orthogonalLoop=1;jettySize=auto;html=1;exitX=1;exitY=0.5;exitDx=0;exitDy=0;entryX=0.5;entryY=1;entryDx=0;entryDy=0;" edge="1" parent="1" source="-Dkvn9TY07eHw9pP2s0H-28" target="-Dkvn9TY07eHw9pP2s0H-25">
          <mxGeometry relative="1" as="geometry" />
        </mxCell>
        <mxCell id="-Dkvn9TY07eHw9pP2s0H-28" value="package.json对应的index字段" style="rhombus;whiteSpace=wrap;html=1;" vertex="1" parent="1">
          <mxGeometry x="810" y="750" width="140" height="80" as="geometry" />
        </mxCell>
        <mxCell id="-Dkvn9TY07eHw9pP2s0H-30" value="index字段对应的文件" style="rounded=1;whiteSpace=wrap;html=1;" vertex="1" parent="1">
          <mxGeometry x="820" y="890" width="120" height="60" as="geometry" />
        </mxCell>
        <mxCell id="-Dkvn9TY07eHw9pP2s0H-37" style="edgeStyle=orthogonalEdgeStyle;rounded=0;orthogonalLoop=1;jettySize=auto;html=1;exitX=0;exitY=0.5;exitDx=0;exitDy=0;entryX=0;entryY=0.5;entryDx=0;entryDy=0;" edge="1" parent="1" source="-Dkvn9TY07eHw9pP2s0H-35" target="-Dkvn9TY07eHw9pP2s0H-13">
          <mxGeometry relative="1" as="geometry" />
        </mxCell>
        <mxCell id="-Dkvn9TY07eHw9pP2s0H-35" value="上级目录" style="rounded=1;whiteSpace=wrap;html=1;" vertex="1" parent="1">
          <mxGeometry x="620" y="1000" width="120" height="60" as="geometry" />
        </mxCell>
      </root>
    </mxGraphModel>
  </diagram>
</mxfile>
